<mxfile host="app.diagrams.net" agent="Mozilla/5.0 (Windows NT 10.0; Win64; x64) AppleWebKit/537.36 (KHTML, like Gecko) Chrome/135.0.0.0 Safari/537.36 Edg/135.0.0.0" version="26.2.14">
  <diagram name="Page-1" id="7jN1cbd6Iw6RjRROv5cM">
    <mxGraphModel dx="1281" dy="616" grid="1" gridSize="10" guides="1" tooltips="1" connect="1" arrows="1" fold="1" page="1" pageScale="1" pageWidth="827" pageHeight="1169" math="0" shadow="0">
      <root>
        <mxCell id="0" />
        <mxCell id="1" parent="0" />
        <mxCell id="DiZCUlWpdzGBV4Cuziwv-1" value="العميل" style="shape=umlActor;verticalLabelPosition=bottom;verticalAlign=top;html=1;" vertex="1" parent="1">
          <mxGeometry x="130" y="20" width="90" height="160" as="geometry" />
        </mxCell>
        <mxCell id="DiZCUlWpdzGBV4Cuziwv-4" value="المطعم" style="rounded=0;whiteSpace=wrap;html=1;" vertex="1" parent="1">
          <mxGeometry x="280" y="30" width="130" height="80" as="geometry" />
        </mxCell>
        <mxCell id="DiZCUlWpdzGBV4Cuziwv-7" value="نظام الدفع" style="rounded=0;whiteSpace=wrap;html=1;shadow=1;" vertex="1" parent="1">
          <mxGeometry x="770" y="30" width="130" height="80" as="geometry" />
        </mxCell>
        <mxCell id="DiZCUlWpdzGBV4Cuziwv-8" value="الطباخ" style="rounded=0;whiteSpace=wrap;html=1;" vertex="1" parent="1">
          <mxGeometry x="600" y="20" width="130" height="80" as="geometry" />
        </mxCell>
        <mxCell id="DiZCUlWpdzGBV4Cuziwv-9" value="الموظف" style="rounded=0;whiteSpace=wrap;html=1;" vertex="1" parent="1">
          <mxGeometry x="430" y="30" width="130" height="80" as="geometry" />
        </mxCell>
        <mxCell id="DiZCUlWpdzGBV4Cuziwv-10" value="" style="endArrow=none;dashed=1;html=1;rounded=0;entryX=0.5;entryY=1;entryDx=0;entryDy=0;" edge="1" parent="1" target="DiZCUlWpdzGBV4Cuziwv-7">
          <mxGeometry width="50" height="50" relative="1" as="geometry">
            <mxPoint x="830" y="670" as="sourcePoint" />
            <mxPoint x="760" y="120" as="targetPoint" />
          </mxGeometry>
        </mxCell>
        <mxCell id="DiZCUlWpdzGBV4Cuziwv-11" value="" style="endArrow=none;dashed=1;html=1;rounded=0;entryX=0.5;entryY=1;entryDx=0;entryDy=0;" edge="1" parent="1" target="DiZCUlWpdzGBV4Cuziwv-8">
          <mxGeometry width="50" height="50" relative="1" as="geometry">
            <mxPoint x="670" y="670" as="sourcePoint" />
            <mxPoint x="675" y="110" as="targetPoint" />
          </mxGeometry>
        </mxCell>
      </root>
    </mxGraphModel>
  </diagram>
</mxfile>
